<svg xmlns="http://www.w3.org/2000/svg" xmlns:xlink="http://www.w3.org/1999/xlink" width="151" height="62" viewBox="0 0 151 62">
  <defs>
    <clipPath id="clip-path">
      <rect width="149.078" height="79" fill="none"/>
    </clipPath>
    <clipPath id="clip-Home_Page">
      <rect width="151" height="62"/>
    </clipPath>
  </defs>
  <g id="Home_Page" data-name="Home Page" clip-path="url(#clip-Home_Page)">
    <g id="Logo" transform="translate(1 -16.999)" clip-path="url(#clip-path)">
      <g id="Group_1972" data-name="Group 1972" transform="translate(0 0)">
        <g id="Group_1968" data-name="Group 1968" transform="translate(0.243 19.567)">
          <path id="Path_78" data-name="Path 78" d="M497.989,336.021a10.874,10.874,0,0,1,.712,1.662.9.9,0,0,1-.2.95,2.213,2.213,0,0,1-1.289.407,25.458,25.458,0,0,1-2.612.1c-.95,0-1.662-.034-2.2-.068a5.066,5.066,0,0,1-1.255-.2,1.424,1.424,0,0,1-.678-.373,2.663,2.663,0,0,1-.373-.611l-7.259-13.942L475.6,337.887a4.82,4.82,0,0,1-.373.611,1.424,1.424,0,0,1-.678.373,5.387,5.387,0,0,1-1.289.2c-.543.034-1.255.068-2.171.068a22.012,22.012,0,0,1-2.408-.1,1.959,1.959,0,0,1-1.153-.407.977.977,0,0,1-.136-.95,10.3,10.3,0,0,1,.746-1.662l9.26-16.859-8.582-15.841a10.538,10.538,0,0,1-.746-1.73.885.885,0,0,1,.136-.95,2.112,2.112,0,0,1,1.255-.373c.611-.034,1.493-.068,2.612-.068.95,0,1.662.034,2.239.068a5.388,5.388,0,0,1,1.289.2,1.425,1.425,0,0,1,.678.373,4.808,4.808,0,0,1,.373.611l6.784,12.788,6.581-12.788a4.808,4.808,0,0,1,.373-.611,1.342,1.342,0,0,1,.611-.373,4.732,4.732,0,0,1,1.187-.2c.509-.034,1.221-.068,2.1-.068.984,0,1.764.034,2.375.068a1.688,1.688,0,0,1,1.187.407.975.975,0,0,1,.17.95,10.165,10.165,0,0,1-.678,1.7l-8.582,15.773Z" transform="translate(-467.336 -300.2)" fill="#3b445a"/>
        </g>
        <g id="Group_1969" data-name="Group 1969" transform="translate(102.029 31.677)">
          <path id="Path_79" data-name="Path 79" d="M767.4,335.9v10.109l5.461,15.5a2.264,2.264,0,0,0,.2.407.793.793,0,0,0,.237.237h0l1.594-5.02h0Zm8.209,18.928Z" transform="translate(-767.4 -335.9)" fill="#3b445a"/>
        </g>
        <g id="Group_1970" data-name="Group 1970" transform="translate(107.829 19.261)">
          <path id="Path_80" data-name="Path 80" d="M806.244,300.894a11.06,11.06,0,0,1-.475,1.662l-11.533,34.261a2.285,2.285,0,0,1-.407.814,1.343,1.343,0,0,1-.78.475,7.155,7.155,0,0,1-1.459.2h-5.156a2.741,2.741,0,0,1-.543-.034c-.1,0-.2-.034-.305-.034a2.726,2.726,0,0,1-.611-.136,1.052,1.052,0,0,1-.441-.2l-.034-.034,1.594-5.02h0l.712-2.239h.034l.068-.2h0l9.159-29.444a2.27,2.27,0,0,1,.305-.814,1.537,1.537,0,0,1,.611-.509,4.849,4.849,0,0,1,1.255-.237,8.91,8.91,0,0,1,1.018-.034c.373,0,.746-.034,1.187-.034h1.052c.407,0,.848-.034,1.357-.034h.441a11.322,11.322,0,0,1,1.7.1,1.6,1.6,0,0,1,1.052.441.586.586,0,0,1,.17.441v.034A1.114,1.114,0,0,1,806.244,300.894Z" transform="translate(-784.5 -299.3)" fill="#3b445a"/>
          <path id="Path_81" data-name="Path 81" d="M784.8,403.354l1.594-5.054v.034Z" transform="translate(-784.698 -364.718)" fill="#3b445a"/>
          <rect id="Rectangle_1211" data-name="Rectangle 1211" width="0.034" transform="translate(2.408 31.343)" fill="#3b445a"/>
        </g>
        <g id="Group_1971" data-name="Group 1971" transform="translate(130.771 19.499)">
          <path id="Path_82" data-name="Path 82" d="M866.809,311.4l-5.394-10.142a2.664,2.664,0,0,0-.373-.611,1.425,1.425,0,0,0-.678-.373,5.388,5.388,0,0,0-1.289-.2c-.543-.034-1.289-.068-2.2-.068-1.153,0-2,.034-2.646.068a2.03,2.03,0,0,0-1.255.373.837.837,0,0,0-.136.95,11.938,11.938,0,0,0,.746,1.73l8.616,15.841-9.26,16.859a8.811,8.811,0,0,0-.746,1.662,1.081,1.081,0,0,0,.1.95,1.593,1.593,0,0,0,1.153.407,21.587,21.587,0,0,0,2.408.1c.882,0,1.628-.034,2.171-.068a5.382,5.382,0,0,0,1.289-.2,1.19,1.19,0,0,0,.678-.373,2.66,2.66,0,0,0,.373-.611l7.225-13.942,2.849-5.665Z" transform="translate(-852.131 -300)" fill="#3b445a"/>
        </g>
        <text id="DE" transform="translate(31.803 57)" fill="#3b445a" font-size="60" font-family="Calibri-Light, Calibri" font-weight="300"><tspan x="0" y="0">DE</tspan></text>
        <text id="World_of_Development" data-name="World of Development" transform="translate(0 75)" fill="#3b445a" font-size="14" font-family="LeelawadeeUI-Semilight, Leelawadee UI" font-weight="300"><tspan x="0" y="0">World of Development</tspan></text>
      </g>
    </g>
  </g>
</svg>
